<svg xmlns="http://www.w3.org/2000/svg" xmlns:xlink="http://www.w3.org/1999/xlink" zoomAndPan="magnify" preserveAspectRatio="xMidYMid meet" version="1.0" viewBox="38 132.88 299 94.1"><defs><g/><clipPath id="0ab60c0363"><path d="M 38 136 L 337 136 L 337 220 L 38 220 Z M 38 136 " clip-rule="nonzero"/></clipPath><clipPath id="dad7bde55a"><path d="M 38.636719 160.691406 L 331.421875 136.191406 L 336.363281 195.222656 L 43.578125 219.722656 Z M 38.636719 160.691406 " clip-rule="nonzero"/></clipPath></defs><g clip-path="url(#0ab60c0363)"><g clip-path="url(#dad7bde55a)"><path fill="#e11d48" d="M 38.636719 160.691406 L 331.484375 136.1875 L 336.425781 195.214844 L 43.578125 219.722656 Z M 38.636719 160.691406 " fill-opacity="1" fill-rule="nonzero"/></g></g><g fill="#3b2c2c" fill-opacity="1"><g transform="translate(100.188068, 177.052429)"><g><path d="M 24.328125 -24.5625 L 41.125 -43.28125 L 43.8125 -43.28125 L 43.8125 0 L 35.171875 0 L 35.234375 -23.78125 L 24.328125 -12.34375 L 13.40625 -23.78125 L 13.40625 0 L 4.765625 0 L 4.765625 -43.28125 L 7.515625 -43.28125 Z M 24.328125 -24.5625 "/></g></g></g><g fill="#3b2c2c" fill-opacity="1"><g transform="translate(148.828859, 177.052429)"><g><path d="M 0.953125 0 L 18.890625 -44.171875 L 19.796875 -44.171875 L 37.734375 0 L 28.140625 0 L 26.40625 -4.59375 L 12.28125 -4.59375 L 10.609375 0 Z M 15.375 -12.578125 L 23.25 -12.578125 L 19.375 -23.671875 Z M 15.375 -12.578125 "/></g></g></g><g fill="#3b2c2c" fill-opacity="1"><g transform="translate(187.7534, 177.052429)"><g><path d="M 25.984375 0 L 17.40625 -16.265625 L 13.296875 -16.265625 L 13.296875 0 L 4.765625 0 L 4.765625 -42.625 L 21.578125 -42.625 C 24.117188 -42.625 26.273438 -42.097656 28.046875 -41.046875 C 29.816406 -39.992188 31.195312 -38.617188 32.1875 -36.921875 C 33.175781 -35.234375 33.789062 -33.40625 34.03125 -31.4375 C 34.269531 -29.476562 34.117188 -27.550781 33.578125 -25.65625 C 33.046875 -23.769531 32.132812 -22.101562 30.84375 -20.65625 C 29.550781 -19.207031 27.851562 -18.179688 25.75 -17.578125 L 35.640625 0 Z M 13.296875 -24.5625 L 20.796875 -24.5625 C 21.953125 -24.5625 22.878906 -24.878906 23.578125 -25.515625 C 24.273438 -26.148438 24.738281 -26.941406 24.96875 -27.890625 C 25.207031 -28.847656 25.207031 -29.800781 24.96875 -30.75 C 24.738281 -31.707031 24.273438 -32.503906 23.578125 -33.140625 C 22.878906 -33.773438 21.953125 -34.09375 20.796875 -34.09375 L 13.296875 -34.09375 Z M 13.296875 -24.5625 "/></g></g></g><g fill="#3b2c2c" fill-opacity="1"><g transform="translate(224.293602, 177.052429)"><g><path d="M 25.28125 0.59375 C 21.625 0.59375 18.410156 -0.0195312 15.640625 -1.25 C 12.878906 -2.476562 10.582031 -4.132812 8.75 -6.21875 C 6.925781 -8.3125 5.554688 -10.671875 4.640625 -13.296875 C 3.734375 -15.921875 3.28125 -18.613281 3.28125 -21.375 C 3.28125 -24.132812 3.734375 -26.820312 4.640625 -29.4375 C 5.554688 -32.0625 6.925781 -34.414062 8.75 -36.5 C 10.582031 -38.59375 12.878906 -40.253906 15.640625 -41.484375 C 18.410156 -42.722656 21.625 -43.34375 25.28125 -43.34375 C 28.9375 -43.34375 32.144531 -42.722656 34.90625 -41.484375 C 37.664062 -40.253906 39.957031 -38.59375 41.78125 -36.5 C 43.613281 -34.414062 44.984375 -32.0625 45.890625 -29.4375 C 46.804688 -26.820312 47.265625 -24.132812 47.265625 -21.375 C 47.265625 -18.613281 46.804688 -15.921875 45.890625 -13.296875 C 44.984375 -10.671875 43.613281 -8.3125 41.78125 -6.21875 C 39.957031 -4.132812 37.664062 -2.476562 34.90625 -1.25 C 32.144531 -0.0195312 28.9375 0.59375 25.28125 0.59375 Z M 25.28125 -8.21875 C 27.695312 -8.21875 29.78125 -8.695312 31.53125 -9.65625 C 33.28125 -10.613281 34.671875 -11.875 35.703125 -13.4375 C 36.734375 -15.007812 37.425781 -16.726562 37.78125 -18.59375 C 38.144531 -20.46875 38.144531 -22.335938 37.78125 -24.203125 C 37.425781 -26.066406 36.734375 -27.785156 35.703125 -29.359375 C 34.671875 -30.929688 33.28125 -32.191406 31.53125 -33.140625 C 29.78125 -34.097656 27.695312 -34.578125 25.28125 -34.578125 C 22.851562 -34.578125 20.765625 -34.097656 19.015625 -33.140625 C 17.265625 -32.191406 15.875 -30.929688 14.84375 -29.359375 C 13.8125 -27.785156 13.113281 -26.066406 12.75 -24.203125 C 12.394531 -22.335938 12.394531 -20.46875 12.75 -18.59375 C 13.113281 -16.726562 13.8125 -15.007812 14.84375 -13.4375 C 15.875 -11.875 17.265625 -10.613281 19.015625 -9.65625 C 20.765625 -8.695312 22.851562 -8.21875 25.28125 -8.21875 Z M 25.28125 -8.21875 "/></g></g></g><g fill="#3b2c2c" fill-opacity="1"><g transform="translate(85.320075, 226.384707)"><g><path d="M 2.796875 -2.734375 L 3.875 -11.6875 C 5.5 -10.53125 7.113281 -9.703125 8.71875 -9.203125 C 10.332031 -8.710938 11.796875 -8.425781 13.109375 -8.34375 C 14.421875 -8.257812 15.394531 -8.238281 16.03125 -8.28125 C 17.300781 -8.363281 18.382812 -8.8125 19.28125 -9.625 C 20.175781 -10.4375 20.566406 -11.421875 20.453125 -12.578125 C 20.367188 -13.804688 19.910156 -14.738281 19.078125 -15.375 C 18.242188 -16.007812 17.226562 -16.523438 16.03125 -16.921875 C 13.8125 -17.765625 11.738281 -18.726562 9.8125 -19.8125 C 7.882812 -20.90625 6.332031 -22.265625 5.15625 -23.890625 C 3.976562 -25.523438 3.390625 -27.535156 3.390625 -29.921875 C 3.390625 -32.304688 3.894531 -34.460938 4.90625 -36.390625 C 5.925781 -38.316406 7.347656 -39.851562 9.171875 -41 C 11.003906 -42.15625 13.09375 -42.796875 15.4375 -42.921875 C 16.550781 -42.992188 17.910156 -42.953125 19.515625 -42.796875 C 21.128906 -42.640625 23.304688 -42.082031 26.046875 -41.125 L 24.96875 -32.90625 C 22.625 -33.851562 20.753906 -34.394531 19.359375 -34.53125 C 17.972656 -34.675781 16.941406 -34.726562 16.265625 -34.6875 C 14.765625 -34.613281 13.664062 -34.097656 12.96875 -33.140625 C 12.269531 -32.191406 11.960938 -31.117188 12.046875 -29.921875 C 12.160156 -28.734375 12.675781 -27.828125 13.59375 -27.203125 C 14.507812 -26.585938 15.582031 -26.0625 16.8125 -25.625 C 19.03125 -24.832031 21.070312 -23.847656 22.9375 -22.671875 C 24.8125 -21.503906 26.316406 -20.09375 27.453125 -18.4375 C 28.585938 -16.789062 29.15625 -14.835938 29.15625 -12.578125 C 29.15625 -10.234375 28.632812 -8.109375 27.59375 -6.203125 C 26.5625 -4.296875 25.082031 -2.765625 23.15625 -1.609375 C 21.226562 -0.453125 18.929688 0.203125 16.265625 0.359375 C 15.472656 0.398438 14.390625 0.367188 13.015625 0.265625 C 11.648438 0.171875 10.09375 -0.101562 8.34375 -0.5625 C 6.59375 -1.019531 4.742188 -1.742188 2.796875 -2.734375 Z M 2.796875 -2.734375 "/></g></g></g><g fill="#3b2c2c" fill-opacity="1"><g transform="translate(116.853127, 226.384707)"><g><path d="M 25.28125 0.59375 C 21.625 0.59375 18.410156 -0.0195312 15.640625 -1.25 C 12.878906 -2.476562 10.582031 -4.132812 8.75 -6.21875 C 6.925781 -8.3125 5.554688 -10.671875 4.640625 -13.296875 C 3.734375 -15.921875 3.28125 -18.613281 3.28125 -21.375 C 3.28125 -24.132812 3.734375 -26.820312 4.640625 -29.4375 C 5.554688 -32.0625 6.925781 -34.414062 8.75 -36.5 C 10.582031 -38.59375 12.878906 -40.253906 15.640625 -41.484375 C 18.410156 -42.722656 21.625 -43.34375 25.28125 -43.34375 C 28.9375 -43.34375 32.144531 -42.722656 34.90625 -41.484375 C 37.664062 -40.253906 39.957031 -38.59375 41.78125 -36.5 C 43.613281 -34.414062 44.984375 -32.0625 45.890625 -29.4375 C 46.804688 -26.820312 47.265625 -24.132812 47.265625 -21.375 C 47.265625 -18.613281 46.804688 -15.921875 45.890625 -13.296875 C 44.984375 -10.671875 43.613281 -8.3125 41.78125 -6.21875 C 39.957031 -4.132812 37.664062 -2.476562 34.90625 -1.25 C 32.144531 -0.0195312 28.9375 0.59375 25.28125 0.59375 Z M 25.28125 -8.21875 C 27.695312 -8.21875 29.78125 -8.695312 31.53125 -9.65625 C 33.28125 -10.613281 34.671875 -11.875 35.703125 -13.4375 C 36.734375 -15.007812 37.425781 -16.726562 37.78125 -18.59375 C 38.144531 -20.46875 38.144531 -22.335938 37.78125 -24.203125 C 37.425781 -26.066406 36.734375 -27.785156 35.703125 -29.359375 C 34.671875 -30.929688 33.28125 -32.191406 31.53125 -33.140625 C 29.78125 -34.097656 27.695312 -34.578125 25.28125 -34.578125 C 22.851562 -34.578125 20.765625 -34.097656 19.015625 -33.140625 C 17.265625 -32.191406 15.875 -30.929688 14.84375 -29.359375 C 13.8125 -27.785156 13.113281 -26.066406 12.75 -24.203125 C 12.394531 -22.335938 12.394531 -20.46875 12.75 -18.59375 C 13.113281 -16.726562 13.8125 -15.007812 14.84375 -13.4375 C 15.875 -11.875 17.265625 -10.613281 19.015625 -9.65625 C 20.765625 -8.695312 22.851562 -8.21875 25.28125 -8.21875 Z M 25.28125 -8.21875 "/></g></g></g><g fill="#3b2c2c" fill-opacity="1"><g transform="translate(167.341786, 226.384707)"><g><path d="M 31.890625 -32.71875 C 31.097656 -33.15625 30.132812 -33.570312 29 -33.96875 C 27.863281 -34.375 26.363281 -34.578125 24.5 -34.578125 C 22.070312 -34.578125 20.003906 -34.109375 18.296875 -33.171875 C 16.585938 -32.234375 15.21875 -30.988281 14.1875 -29.4375 C 13.15625 -27.894531 12.457031 -26.195312 12.09375 -24.34375 C 11.738281 -22.5 11.738281 -20.648438 12.09375 -18.796875 C 12.457031 -16.953125 13.15625 -15.253906 14.1875 -13.703125 C 15.21875 -12.160156 16.585938 -10.921875 18.296875 -9.984375 C 20.003906 -9.046875 22.070312 -8.578125 24.5 -8.578125 C 26.363281 -8.578125 28 -8.796875 29.40625 -9.234375 C 30.820312 -9.671875 31.925781 -10.085938 32.71875 -10.484375 L 33.859375 -1.671875 C 32.546875 -1.148438 31.035156 -0.71875 29.328125 -0.375 C 27.617188 -0.0390625 26.007812 0.125 24.5 0.125 C 20.882812 0.125 17.722656 -0.476562 15.015625 -1.6875 C 12.316406 -2.90625 10.0625 -4.546875 8.25 -6.609375 C 6.445312 -8.679688 5.097656 -11 4.203125 -13.5625 C 3.304688 -16.125 2.859375 -18.773438 2.859375 -21.515625 C 2.859375 -24.253906 3.304688 -26.90625 4.203125 -29.46875 C 5.097656 -32.039062 6.445312 -34.359375 8.25 -36.421875 C 10.0625 -38.484375 12.316406 -40.117188 15.015625 -41.328125 C 17.722656 -42.546875 20.882812 -43.15625 24.5 -43.15625 C 27.601562 -43.15625 30.40625 -42.597656 32.90625 -41.484375 Z M 31.890625 -32.71875 "/></g></g></g><g fill="#3b2c2c" fill-opacity="1"><g transform="translate(203.22629, 226.384707)"><g><path d="M 13.296875 0 L 4.765625 0 L 4.765625 -42.625 L 13.296875 -42.625 Z M 13.296875 0 "/></g></g></g><g fill="#3b2c2c" fill-opacity="1"><g transform="translate(221.347374, 226.384707)"><g><path d="M 0.953125 0 L 18.890625 -44.171875 L 19.796875 -44.171875 L 37.734375 0 L 28.140625 0 L 26.40625 -4.59375 L 12.28125 -4.59375 L 10.609375 0 Z M 15.375 -12.578125 L 23.25 -12.578125 L 19.375 -23.671875 Z M 15.375 -12.578125 "/></g></g></g><g fill="#3b2c2c" fill-opacity="1"><g transform="translate(260.271916, 226.384707)"><g><path d="M 4.765625 -42.625 L 13.296875 -42.625 L 13.296875 -8.53125 L 26.828125 -8.53125 L 26.828125 0 L 4.765625 0 Z M 4.765625 -42.625 "/></g></g></g></svg>